<svg viewBox="0 0 20 18" xmlns="http://www.w3.org/2000/svg">
<path d="M19.9999 13.1239C19.9999 11.9536 19.6495 10.8235 18.9864 9.85591C18.5094 9.15993 17.8952 8.58197 17.1834 8.15248C18.0214 7.35888 18.5458 6.23722 18.5458 4.9947C18.5458 2.59545 16.5938 0.643463 14.1946 0.643463C12.7719 0.643463 11.4392 1.34707 10.6297 2.50207C10.424 2.47211 10.2139 2.45595 9.99997 2.45595C9.78606 2.45595 9.57595 2.47216 9.37025 2.50207C8.56071 1.34707 7.22803 0.643463 5.80542 0.643463C3.40617 0.643463 1.45419 2.59545 1.45419 4.9947C1.45419 6.23722 1.97851 7.35888 2.81656 8.15248C2.10474 8.58192 1.49054 9.15993 1.01363 9.85586C0.350513 10.8235 0 11.9536 0 13.1239V15.5441H4.19461V17.3565H15.8054V15.5441H20V13.1239H19.9999ZM14.1946 1.71739C16.0017 1.71739 17.4719 3.18758 17.4719 4.99475C17.4719 6.80192 16.0017 8.27211 14.1946 8.27211C14.1622 8.27211 14.1298 8.27162 14.0974 8.27066C14.0999 8.26378 14.1019 8.25675 14.1043 8.24988C14.1603 8.09127 14.2069 7.92836 14.2444 7.76196C14.247 7.75015 14.25 7.73844 14.2525 7.72658C14.2622 7.68169 14.2708 7.63637 14.2791 7.59095C14.283 7.56947 14.287 7.54805 14.2906 7.52652C14.2974 7.48598 14.3035 7.44528 14.3092 7.40442C14.3131 7.37601 14.3166 7.34761 14.32 7.31915C14.3243 7.28307 14.3284 7.24693 14.3318 7.21058C14.3352 7.17348 14.3378 7.13632 14.3403 7.09911C14.3422 7.0698 14.3446 7.04059 14.3459 7.01111C14.3489 6.94791 14.3506 6.88461 14.3508 6.82125C14.3508 6.81658 14.3512 6.81201 14.3512 6.80729C14.3512 6.80476 14.3509 6.80224 14.3509 6.79972C14.3508 6.73502 14.349 6.67069 14.3461 6.60658C14.3452 6.58795 14.3441 6.56937 14.343 6.55079C14.3398 6.49629 14.3357 6.44206 14.3306 6.3881C14.3294 6.37586 14.3284 6.36362 14.3272 6.35143C14.1649 4.78309 13.1741 3.44069 11.7448 2.81978C12.3607 2.12783 13.2516 1.71739 14.1946 1.71739ZM8.86602 3.73209C8.87649 3.72827 8.88706 3.72468 8.89753 3.72092C8.93013 3.70927 8.96299 3.69821 8.99601 3.68752C9.02103 3.67952 9.04621 3.67179 9.07155 3.66438C9.08997 3.65896 9.10844 3.65375 9.12697 3.64859C9.16004 3.63952 9.19328 3.63066 9.22684 3.62255C9.4749 3.56231 9.7336 3.52961 9.99987 3.52961C10.2663 3.52982 10.5252 3.56258 10.7733 3.62282C10.8066 3.63087 10.8396 3.63968 10.8726 3.6487C10.8913 3.65391 10.9101 3.65917 10.9288 3.6647C10.9538 3.67206 10.9787 3.67968 11.0035 3.68758C11.0369 3.69837 11.0701 3.70954 11.1031 3.72135C11.1133 3.72495 11.1234 3.72838 11.1335 3.73209C12.2296 4.13742 13.0513 5.11287 13.2373 6.29666C13.2388 6.30611 13.2402 6.31561 13.2416 6.32512C13.2475 6.36523 13.2525 6.40566 13.257 6.4462C13.2586 6.46112 13.2603 6.476 13.2618 6.49098C13.2653 6.52797 13.2679 6.56524 13.2703 6.60261C13.2713 6.61861 13.2726 6.63455 13.2734 6.65061C13.2756 6.69834 13.2768 6.74635 13.277 6.79462C13.277 6.7988 13.2773 6.80288 13.2773 6.80707C13.2773 6.80901 13.2772 6.81099 13.2772 6.81293C13.2771 6.85964 13.2757 6.90603 13.2736 6.95226C13.273 6.96681 13.2723 6.98136 13.2715 6.99586C13.269 7.04053 13.2656 7.08499 13.2613 7.12913C13.2597 7.1462 13.2574 7.16322 13.2555 7.18025C13.2522 7.20881 13.2486 7.23732 13.2446 7.26567C13.2415 7.28774 13.2383 7.30986 13.2348 7.33182C13.2294 7.36527 13.2234 7.39851 13.2169 7.43164C13.2112 7.46112 13.2049 7.49049 13.1983 7.5198C13.1944 7.53747 13.1903 7.55513 13.1861 7.57269C13.1756 7.61624 13.1641 7.65951 13.1519 7.70263C13.147 7.71976 13.1425 7.737 13.1373 7.75396C13.1298 7.77866 13.1218 7.80315 13.1138 7.82763C13.1073 7.84723 13.1007 7.86672 13.0939 7.88616C13.0862 7.90822 13.0786 7.93035 13.0704 7.95225C13.0565 7.98946 13.0419 8.02635 13.0267 8.06292C13.0199 8.07924 13.0127 8.0954 13.0057 8.11167C12.9924 8.14211 12.9788 8.1724 12.9646 8.20236C12.963 8.2059 12.9613 8.20945 12.9596 8.21299C12.9545 8.22362 12.9495 8.23431 12.9443 8.24494C12.9284 8.27737 12.9118 8.30942 12.8949 8.34121C12.8883 8.35356 12.8819 8.36607 12.8751 8.37837C12.8747 8.37917 12.8743 8.37992 12.8738 8.38068C12.8552 8.4145 12.8359 8.44779 12.8162 8.48087C12.8083 8.49397 12.8006 8.50712 12.7926 8.52006C12.7711 8.55491 12.749 8.58938 12.7263 8.62332C12.7122 8.64442 12.6974 8.66509 12.6828 8.68587C12.6704 8.70348 12.6581 8.72115 12.6454 8.73849C12.6289 8.76093 12.6121 8.78311 12.595 8.80518C12.5834 8.82016 12.5717 8.83503 12.5599 8.84985C12.5418 8.8724 12.5236 8.89485 12.5051 8.91691C12.4935 8.93061 12.4816 8.94403 12.4699 8.95751C12.4506 8.97968 12.4313 9.00191 12.4114 9.02355C12.3996 9.03638 12.3874 9.04873 12.3753 9.0614C12.343 9.0955 12.3099 9.12884 12.2762 9.16154C12.2562 9.18093 12.2363 9.20036 12.2158 9.21921C12.2016 9.23226 12.187 9.24493 12.1726 9.25776C12.1491 9.27865 12.1254 9.29932 12.1013 9.31951C12.089 9.32977 12.0767 9.33991 12.0643 9.35001C12.0351 9.37374 12.0056 9.39699 11.9756 9.41976C11.9674 9.42593 11.9594 9.43221 11.9511 9.43833C11.4056 9.84388 10.7304 10.0843 9.99992 10.0843C9.26942 10.0843 8.59406 9.84383 8.04853 9.43817C8.04047 9.43216 8.03258 9.42598 8.02458 9.41992C7.99446 9.3971 7.96477 9.37369 7.9355 9.34985C7.92321 9.33981 7.91091 9.32977 7.89878 9.31956C7.87456 9.29927 7.85083 9.27849 7.8272 9.25755C7.81287 9.24477 7.79837 9.2322 7.78425 9.21921C7.76368 9.20031 7.74371 9.18082 7.72363 9.16144C7.68975 9.12863 7.65662 9.09518 7.62419 9.06097C7.61232 9.04846 7.60019 9.03628 7.58853 9.0236C7.56861 9.00191 7.54934 8.97963 7.53001 8.95745C7.51825 8.94398 7.50644 8.93061 7.49489 8.91691C7.47626 8.89485 7.45811 8.8724 7.44007 8.8499C7.42826 8.83509 7.4165 8.82021 7.4049 8.80518C7.38788 8.78316 7.37108 8.76099 7.35459 8.73854C7.34187 8.72115 7.32946 8.70343 7.31706 8.68576C7.30245 8.66504 7.28774 8.64442 7.27367 8.62337C7.25085 8.58928 7.22868 8.5547 7.20715 8.51974C7.19926 8.50691 7.19163 8.49397 7.1839 8.48103C7.16387 8.44747 7.14427 8.41375 7.12543 8.37944C7.1185 8.36682 7.11195 8.35399 7.10513 8.34132C7.08816 8.30942 7.07157 8.27726 7.05562 8.24478C7.04993 8.23323 7.0444 8.22158 7.03887 8.20998C7.03801 8.20821 7.03721 8.20644 7.0364 8.20467C7.02153 8.17331 7.0073 8.14163 6.99339 8.10968C6.98679 8.09449 6.98008 8.07935 6.97374 8.0641C6.95817 8.02673 6.9433 7.98903 6.92907 7.95102C6.92139 7.93051 6.9143 7.90978 6.90705 7.88911C6.89959 7.8679 6.89239 7.84653 6.88536 7.82511C6.87779 7.80191 6.87017 7.77871 6.86308 7.75541C6.8525 7.72056 6.84251 7.6855 6.83312 7.65023C6.82651 7.62547 6.82055 7.60051 6.81449 7.57559C6.80976 7.55599 6.8052 7.5364 6.80085 7.51669C6.79548 7.49253 6.79006 7.46842 6.78522 7.44415C6.77776 7.40635 6.77094 7.36833 6.76482 7.3301C6.76149 7.30949 6.75859 7.28881 6.75564 7.2682C6.75129 7.23764 6.74737 7.20693 6.74388 7.17611C6.74216 7.16091 6.74017 7.14572 6.73862 7.13052C6.73416 7.08526 6.73078 7.03967 6.7282 6.99393C6.72745 6.98077 6.72686 6.96762 6.72627 6.95446C6.72407 6.90555 6.72251 6.85647 6.72251 6.80707C6.72251 6.75413 6.72401 6.70157 6.72654 6.64921C6.72723 6.63499 6.72841 6.62086 6.72922 6.60669C6.73158 6.56738 6.73443 6.52819 6.73819 6.48921C6.73948 6.47562 6.74103 6.46209 6.74248 6.44856C6.7471 6.40636 6.75231 6.36437 6.75854 6.32265C6.75972 6.31454 6.7609 6.30638 6.76219 6.29827C6.94759 5.11379 7.76954 4.13769 8.86602 3.73209ZM2.52806 4.99475C2.52806 3.18763 3.99825 1.71739 5.80542 1.71739C6.74844 1.71739 7.63928 2.12788 8.2552 2.81967C6.82539 3.4408 5.83436 4.78384 5.67258 6.35282C5.67145 6.36346 5.67065 6.37414 5.66963 6.38483C5.66426 6.44072 5.66002 6.49683 5.6568 6.55326C5.65583 6.57045 5.65475 6.58757 5.65395 6.60481C5.65089 6.67198 5.64879 6.73937 5.64879 6.80723C5.64879 6.87575 5.65078 6.9441 5.654 7.0124C5.65529 7.03989 5.65755 7.06711 5.65932 7.09444C5.66195 7.13375 5.66463 7.17305 5.66829 7.21225C5.67151 7.24709 5.67548 7.28173 5.67956 7.31636C5.68311 7.34653 5.68686 7.3766 5.69105 7.40667C5.69653 7.44614 5.70243 7.48544 5.70893 7.52458C5.71285 7.54783 5.71715 7.57103 5.72139 7.59422C5.72944 7.63804 5.73766 7.68174 5.747 7.72507C5.75011 7.73936 5.75366 7.75353 5.75688 7.76776C5.79334 7.929 5.8386 8.08686 5.89251 8.2408C5.89595 8.25074 5.89895 8.26078 5.90244 8.27066C5.87007 8.27162 5.83764 8.27211 5.80531 8.27211C3.99825 8.27205 2.52806 6.80187 2.52806 4.99475ZM5.09489 11.8408C5.08308 11.8594 5.0718 11.8783 5.0602 11.8971C5.03567 11.9367 5.01134 11.9764 4.98782 12.0165C4.97467 12.0389 4.962 12.0615 4.94922 12.084C4.92806 12.1212 4.90718 12.1586 4.88688 12.1962C4.8741 12.2199 4.86154 12.2437 4.84908 12.2675C4.82954 12.3049 4.81047 12.3425 4.79179 12.3803C4.78003 12.404 4.76833 12.4277 4.75694 12.4515C4.73793 12.4913 4.71962 12.5314 4.70153 12.5716C4.6917 12.5934 4.68161 12.6151 4.67211 12.6371C4.65117 12.6852 4.63119 12.7337 4.61159 12.7823C4.60585 12.7966 4.59973 12.8106 4.59414 12.8249C4.56928 12.888 4.5455 12.9517 4.52294 13.0156C4.51779 13.0303 4.51317 13.0451 4.50807 13.0598C4.4911 13.1091 4.47457 13.1585 4.45894 13.2082C4.4518 13.231 4.4452 13.2539 4.43832 13.2768C4.42571 13.3189 4.4133 13.361 4.40165 13.4035C4.39472 13.4287 4.38812 13.454 4.38152 13.4793C4.37088 13.52 4.36068 13.5608 4.35102 13.6018C4.34484 13.6277 4.33883 13.6537 4.33308 13.6797C4.32385 13.7212 4.3152 13.7628 4.30688 13.8045C4.30189 13.8296 4.29673 13.8547 4.29206 13.8799C4.28363 13.9253 4.27606 13.9709 4.2687 14.0166C4.26527 14.0381 4.26146 14.0595 4.25823 14.081C4.24825 14.1481 4.23917 14.2154 4.23155 14.283C4.23144 14.2838 4.23139 14.2846 4.23133 14.2854C4.22441 14.3469 4.21845 14.4084 4.21345 14.4702H1.07387V13.1239C1.07387 11.2844 2.13132 9.63308 3.78798 8.84819C4.3915 9.16541 5.07755 9.34598 5.80537 9.34598C6.01585 9.34598 6.22697 9.33041 6.43648 9.29959C6.46913 9.34614 6.50231 9.39221 6.53667 9.43742C6.54827 9.45262 6.5603 9.46744 6.57211 9.48247C6.60605 9.52586 6.64046 9.56876 6.67601 9.6108C6.69056 9.62803 6.70549 9.64489 6.72031 9.66192C6.7536 9.70015 6.78742 9.73789 6.822 9.77489C6.84015 9.79438 6.85862 9.81355 6.87709 9.83271C6.90872 9.86531 6.94077 9.89742 6.97337 9.92904C6.98561 9.94091 6.99715 9.95347 7.0095 9.96523C6.96284 9.99342 6.91661 10.0223 6.87081 10.0518C6.86335 10.0566 6.85604 10.0616 6.84863 10.0664C6.80283 10.0962 6.75752 10.1266 6.71263 10.1576C6.69711 10.1683 6.68165 10.1791 6.66618 10.19C6.62618 10.2182 6.58661 10.2469 6.54736 10.276C6.53496 10.2852 6.52239 10.2943 6.5101 10.3036C6.46016 10.3414 6.41082 10.3798 6.36212 10.4191C6.35148 10.4277 6.34107 10.4366 6.33044 10.4453C6.29167 10.477 6.25328 10.5093 6.21537 10.542C6.20066 10.5547 6.18605 10.5675 6.17145 10.5803C6.13349 10.6137 6.09601 10.6477 6.05891 10.6821C6.04924 10.6911 6.03936 10.6999 6.02975 10.7089C5.98422 10.7518 5.93939 10.7954 5.8952 10.8398C5.8837 10.8514 5.87248 10.8632 5.8611 10.8747C5.82727 10.9093 5.79382 10.9442 5.7608 10.9796C5.7477 10.9936 5.7346 11.0077 5.7216 11.0219C5.68445 11.0625 5.64783 11.1036 5.6118 11.1454C5.60616 11.1519 5.60031 11.1583 5.59467 11.1649C5.5536 11.2128 5.51343 11.2617 5.47381 11.311C5.46275 11.3248 5.45195 11.3387 5.44105 11.3526C5.41125 11.3905 5.38188 11.4287 5.353 11.4673C5.34183 11.4822 5.33061 11.4971 5.3196 11.5121C5.2818 11.5636 5.24448 11.6156 5.20824 11.6685C5.16931 11.7253 5.13162 11.7828 5.09489 11.8408ZM5.26848 16.2827V15.5442V14.9364C5.26848 14.8768 5.26961 14.8174 5.27181 14.7581C5.27251 14.7387 5.27407 14.7193 5.27503 14.6999C5.27697 14.6604 5.27879 14.6208 5.28169 14.5814C5.28346 14.5575 5.28615 14.5339 5.2883 14.51C5.29141 14.4753 5.2942 14.4406 5.29807 14.4061C5.30091 14.3809 5.30462 14.3558 5.30784 14.3306C5.31203 14.2978 5.31595 14.265 5.32078 14.2323C5.3247 14.2063 5.32942 14.1806 5.33372 14.1547C5.33898 14.1232 5.34387 14.0916 5.34977 14.0603C5.35477 14.0339 5.36057 14.0077 5.36599 13.9813C5.37222 13.9509 5.37818 13.9204 5.385 13.8902C5.39101 13.8636 5.39788 13.8372 5.40433 13.8107C5.41158 13.7812 5.4185 13.7515 5.42629 13.7221C5.43338 13.6954 5.44121 13.669 5.44873 13.6426C5.45689 13.6137 5.46484 13.5848 5.47354 13.5562C5.48165 13.5296 5.49056 13.5032 5.4991 13.4767C5.50822 13.4486 5.51708 13.4205 5.5267 13.3926C5.53582 13.3662 5.54565 13.3401 5.55521 13.3139C5.5653 13.2863 5.57518 13.2586 5.58576 13.2313C5.59585 13.2052 5.60659 13.1795 5.61706 13.1536C5.62807 13.1266 5.63892 13.0994 5.65041 13.0726C5.66152 13.0468 5.67323 13.0213 5.68477 12.9957C5.69664 12.9693 5.70839 12.9429 5.72074 12.9168C5.73283 12.8913 5.7455 12.8661 5.75801 12.8408C5.77079 12.815 5.78341 12.7892 5.79661 12.7637C5.80966 12.7386 5.82325 12.7138 5.83672 12.6889C5.85036 12.6637 5.86384 12.6385 5.87791 12.6136C5.89187 12.5889 5.90636 12.5646 5.9207 12.5402C5.9352 12.5156 5.94959 12.4909 5.96457 12.4666C5.97944 12.4423 5.9948 12.4185 6.0101 12.3946C6.02546 12.3705 6.04071 12.3465 6.05649 12.3228C6.07228 12.2991 6.08849 12.2757 6.10471 12.2523C6.12087 12.2289 6.13698 12.2055 6.15352 12.1825C6.17016 12.1593 6.18729 12.1364 6.20442 12.1135C6.22138 12.0908 6.2383 12.068 6.25564 12.0456C6.27315 12.023 6.29108 12.0008 6.30901 11.9784C6.32679 11.9563 6.34461 11.9342 6.36276 11.9124C6.38107 11.8905 6.39976 11.8689 6.41844 11.8473C6.43707 11.8258 6.45576 11.8042 6.47482 11.783C6.49388 11.7617 6.51337 11.7408 6.53281 11.7198C6.55225 11.6989 6.57168 11.6782 6.5915 11.6577C6.61136 11.637 6.6316 11.6167 6.6519 11.5965C6.67214 11.5763 6.69249 11.5561 6.71311 11.5362C6.73368 11.5164 6.75456 11.4968 6.77556 11.4774C6.79661 11.4578 6.81776 11.4383 6.83918 11.4191C6.86055 11.4 6.88214 11.3811 6.90389 11.3624C6.92569 11.3435 6.94765 11.3248 6.96982 11.3063C6.99189 11.288 7.01417 11.2699 7.03662 11.2519C7.05922 11.2337 7.08199 11.2158 7.10497 11.198C7.12768 11.1805 7.15061 11.1632 7.17364 11.146C7.19705 11.1286 7.22062 11.1113 7.24446 11.0943C7.26777 11.0776 7.29129 11.0612 7.31496 11.0449C7.33923 11.0282 7.36361 11.0117 7.3882 10.9954C7.4121 10.9796 7.43621 10.964 7.46042 10.9486C7.4855 10.9326 7.51073 10.9169 7.53613 10.9014C7.56061 10.8865 7.58526 10.8717 7.61007 10.8572C7.63584 10.8422 7.66183 10.8273 7.68798 10.8126C7.71305 10.7986 7.73829 10.7847 7.76368 10.771C7.79026 10.7567 7.81705 10.7427 7.84401 10.7289C7.86957 10.7157 7.89523 10.7028 7.92111 10.69C7.94146 10.6801 7.96203 10.6704 7.98259 10.6607C8.58606 10.9779 9.27221 11.1584 9.99997 11.1584C10.7278 11.1584 11.4139 10.9779 12.0174 10.6607C12.0378 10.6703 12.0582 10.6799 12.0784 10.6898C12.1046 10.7027 12.1305 10.7158 12.1564 10.7291C12.183 10.7428 12.2095 10.7566 12.2358 10.7707C12.2615 10.7845 12.287 10.7986 12.3123 10.8128C12.3382 10.8273 12.3638 10.842 12.3893 10.8569C12.4145 10.8716 12.4394 10.8866 12.4642 10.9018C12.4893 10.9171 12.5142 10.9325 12.5389 10.9483C12.5635 10.9639 12.5879 10.9797 12.6121 10.9957C12.6364 11.0118 12.6605 11.0281 12.6844 11.0446C12.7083 11.0611 12.7321 11.0777 12.7557 11.0945C12.7793 11.1114 12.8026 11.1285 12.8258 11.1457C12.8491 11.163 12.8722 11.1805 12.8951 11.1982C12.9179 11.2158 12.9405 11.2336 12.9629 11.2516C12.9855 11.2697 13.0079 11.2879 13.0301 11.3064C13.0522 11.3248 13.074 11.3434 13.0957 11.3621C13.1175 11.381 13.1393 11.3999 13.1608 11.4192C13.182 11.4383 13.203 11.4576 13.2239 11.477C13.2451 11.4966 13.2662 11.5164 13.2869 11.5364C13.3074 11.5561 13.3275 11.5761 13.3476 11.5961C13.368 11.6165 13.3884 11.637 13.4084 11.6577C13.428 11.6781 13.4474 11.6987 13.4667 11.7195C13.4864 11.7406 13.506 11.7617 13.5252 11.7831C13.5441 11.8042 13.5626 11.8255 13.5811 11.8469C13.5999 11.8686 13.6188 11.8904 13.6372 11.9125C13.6553 11.9342 13.6729 11.9561 13.6906 11.9781C13.7087 12.0005 13.7267 12.0229 13.7443 12.0457C13.7616 12.068 13.7784 12.0906 13.7953 12.1132C13.8124 12.1362 13.8296 12.1592 13.8464 12.1825C13.8629 12.2054 13.8789 12.2287 13.895 12.252C13.9112 12.2755 13.9276 12.299 13.9434 12.3229C13.9591 12.3464 13.9742 12.3703 13.9895 12.3941C14.0049 12.4182 14.0203 12.4423 14.0353 12.4667C14.0501 12.4908 14.0644 12.5153 14.0788 12.5396C14.0933 12.5642 14.1079 12.5888 14.1219 12.6136C14.1359 12.6384 14.1494 12.6636 14.163 12.6886C14.1765 12.7135 14.1901 12.7385 14.2032 12.7636C14.2164 12.7891 14.2289 12.8149 14.2417 12.8406C14.2542 12.8659 14.267 12.8912 14.279 12.9167C14.2914 12.9428 14.3031 12.9692 14.3149 12.9955C14.3265 13.0212 14.3383 13.0468 14.3494 13.0727C14.3608 13.0993 14.3715 13.1262 14.3825 13.153C14.3931 13.1791 14.4039 13.2051 14.4141 13.2314C14.4246 13.2586 14.4344 13.2862 14.4445 13.3137C14.4541 13.3399 14.4639 13.3661 14.473 13.3926C14.4827 13.4205 14.4916 13.4488 14.5007 13.477C14.5093 13.5034 14.5181 13.5296 14.5262 13.5562C14.5349 13.5848 14.5428 13.6138 14.5511 13.6426C14.5586 13.6691 14.5664 13.6954 14.5735 13.7221C14.5813 13.7515 14.5882 13.7811 14.5955 13.8107C14.602 13.8372 14.6088 13.8636 14.6148 13.8902C14.6216 13.9204 14.6275 13.9509 14.6338 13.9812C14.6392 14.0076 14.645 14.0338 14.65 14.0603C14.6559 14.0914 14.6607 14.1227 14.666 14.1539C14.6703 14.1801 14.6751 14.2061 14.6791 14.2324C14.6839 14.2648 14.6878 14.2974 14.6919 14.3299C14.6952 14.3553 14.699 14.3806 14.7018 14.4061C14.7057 14.4405 14.7085 14.4753 14.7116 14.51C14.7137 14.5338 14.7164 14.5575 14.7182 14.5814C14.7212 14.6207 14.7229 14.6604 14.7249 14.6999C14.7258 14.7193 14.7274 14.7387 14.7281 14.7581C14.7303 14.8173 14.7314 14.8767 14.7314 14.9363V15.5441V16.2827H5.26848ZM15.7868 14.4702C15.7762 14.3394 15.7611 14.2095 15.7419 14.0803C15.7388 14.0598 15.7352 14.0395 15.7319 14.0191C15.7244 13.9723 15.7166 13.9257 15.708 13.8792C15.7034 13.8547 15.6984 13.8303 15.6935 13.8059C15.6851 13.7634 15.6763 13.7211 15.6669 13.6789C15.6612 13.6534 15.6553 13.6279 15.6493 13.6026C15.6395 13.5612 15.6292 13.5199 15.6184 13.4787C15.6119 13.4537 15.6054 13.4288 15.5986 13.4039C15.5868 13.361 15.5742 13.3184 15.5615 13.2758C15.5547 13.2534 15.5483 13.2309 15.5412 13.2085C15.5254 13.1581 15.5086 13.1079 15.4914 13.0579C15.4866 13.0439 15.4822 13.0298 15.4772 13.0158C15.4546 12.9517 15.4308 12.8879 15.4058 12.8245C15.4004 12.8109 15.3946 12.7975 15.3891 12.7839C15.3693 12.7346 15.349 12.6855 15.3278 12.6368C15.3184 12.6151 15.3085 12.5938 15.2988 12.5722C15.2805 12.5316 15.2621 12.4912 15.2428 12.451C15.2316 12.4275 15.22 12.4042 15.2085 12.3808C15.1896 12.3427 15.1704 12.3047 15.1507 12.267C15.1383 12.2433 15.1259 12.2198 15.1132 12.1964C15.0928 12.1586 15.0719 12.1211 15.0506 12.0838C15.0378 12.0613 15.0252 12.0389 15.0122 12.0166C14.9885 11.9763 14.9641 11.9364 14.9394 11.8965C14.9279 11.878 14.9168 11.8592 14.9051 11.8408C14.8683 11.7829 14.8306 11.7254 14.7916 11.6685C14.7553 11.6156 14.718 11.5636 14.6802 11.512C14.6692 11.4971 14.6581 11.4823 14.647 11.4675C14.618 11.4287 14.5885 11.3904 14.5586 11.3524C14.5478 11.3387 14.5371 11.3248 14.5261 11.3112C14.4865 11.2617 14.4461 11.2128 14.405 11.1647C14.3996 11.1585 14.3941 11.1524 14.3887 11.1462C14.3524 11.1041 14.3154 11.0627 14.278 11.0218C14.2651 11.0077 14.2522 10.9938 14.2392 10.9798C14.206 10.9442 14.1724 10.9091 14.1383 10.8744C14.1271 10.8629 14.1161 10.8514 14.1048 10.8401C14.0605 10.7956 14.0155 10.7518 13.9698 10.7088C13.9604 10.7 13.9508 10.6914 13.9413 10.6826C13.904 10.6479 13.8663 10.6139 13.8282 10.5802C13.8137 10.5675 13.7991 10.5548 13.7845 10.5421C13.7465 10.5093 13.7081 10.477 13.6692 10.4453C13.6587 10.4366 13.6483 10.4277 13.6377 10.4192C13.589 10.3799 13.5397 10.3414 13.4898 10.3037C13.4773 10.2943 13.4647 10.2852 13.4522 10.2759C13.4131 10.2469 13.3737 10.2183 13.3339 10.1903C13.3182 10.1793 13.3026 10.1684 13.2869 10.1575C13.2425 10.1268 13.1976 10.0968 13.1523 10.0674C13.1444 10.0622 13.1366 10.0568 13.1287 10.0517C13.0829 10.0224 13.0368 9.99353 12.9902 9.96539C13.0023 9.95395 13.0135 9.94177 13.0254 9.93017C13.0587 9.89795 13.0914 9.8652 13.1236 9.83191C13.1416 9.81333 13.1595 9.7947 13.1771 9.7758C13.2123 9.73821 13.2465 9.69988 13.2803 9.66106C13.2947 9.64457 13.3092 9.6282 13.3233 9.61144C13.3593 9.56881 13.3943 9.52526 13.4287 9.48118C13.44 9.46679 13.4516 9.45262 13.4626 9.43807C13.4972 9.39269 13.5305 9.34641 13.5633 9.2997C13.7728 9.33046 13.9839 9.34604 14.1944 9.34604C14.9222 9.34604 15.6083 9.16552 16.2118 8.84824C17.8685 9.63313 18.9259 11.2845 18.9259 13.1239V14.4702H15.7868Z"/>
</svg>
